<?xml version="1.0" encoding="utf-8"?>
<!-- Generator: Adobe Illustrator 25.2.3, SVG Export Plug-In . SVG Version: 6.00 Build 0)  -->
<svg version="1.1" id="Capa_1" xmlns="http://www.w3.org/2000/svg" xmlns:xlink="http://www.w3.org/1999/xlink" x="0px" y="0px"
	 viewBox="0 0 83.8 83.8" style="enable-background:new 0 0 83.8 83.8;" xml:space="preserve">
<style type="text/css">
	.st0{fill:#FFFFFF;}
</style>
<g>
	<g>
		<circle class="st0" cx="35.6" cy="48.3" r="2.1"/>
		<path class="st0" d="M25.5,53.6c-0.1-0.2-0.2-0.4-0.4-0.7c-0.1-0.1-0.1-0.2-0.2-0.3c-0.1-0.3-0.2-0.5-0.3-0.8
			c0-0.1-0.1-0.1-0.1-0.2c-0.1-0.3-0.2-0.7-0.3-1c0-0.1,0-0.2-0.1-0.3c-0.1-0.3-0.1-0.5-0.2-0.8c0-0.1,0-0.2-0.1-0.3
			c0-0.2-0.1-0.5-0.1-0.7c0-0.1,0-0.2,0-0.3c0-0.3,0-0.7,0-1c0-0.3,0-0.6,0-0.9c0-0.1,0-0.2,0-0.3c0-0.2,0-0.4,0.1-0.6
			c0-0.1,0-0.2,0.1-0.3c0-0.2,0.1-0.3,0.1-0.5c0-0.1,0.1-0.2,0.1-0.4c0-0.2,0.1-0.3,0.1-0.5c0-0.1,0.1-0.2,0.1-0.4
			c0-0.2,0.1-0.3,0.1-0.5c0-0.1,0.1-0.2,0.1-0.4c0.1-0.1,0.1-0.3,0.2-0.4c0.1-0.1,0.1-0.2,0.2-0.4c0.1-0.1,0.1-0.3,0.2-0.4
			c0.1-0.1,0.1-0.2,0.2-0.4c0.1-0.1,0.1-0.3,0.2-0.4c0.1-0.1,0.1-0.2,0.2-0.4c0.1-0.1,0.2-0.3,0.2-0.4c0.1-0.1,0.2-0.2,0.2-0.3
			c0.1-0.1,0.2-0.3,0.3-0.4c0.1-0.1,0.2-0.2,0.3-0.3c0.1-0.1,0.2-0.2,0.3-0.4c0.1-0.1,0.2-0.2,0.3-0.3c0.1-0.1,0.2-0.2,0.3-0.4
			c0.1-0.1,0.2-0.2,0.3-0.3c0.1-0.1,0.2-0.2,0.3-0.3c0.1-0.1,0.2-0.2,0.3-0.3c0.1-0.1,0.2-0.2,0.4-0.3c0.1-0.1,0.2-0.2,0.3-0.3
			c0.1-0.1,0.3-0.2,0.4-0.3c0.1-0.1,0.2-0.2,0.4-0.3c0.1-0.1,0.3-0.2,0.4-0.3c0.1-0.1,0.3-0.2,0.4-0.3c0.1-0.1,0.3-0.2,0.4-0.3
			c0.1-0.1,0.3-0.2,0.4-0.3c0.1-0.1,0.3-0.2,0.4-0.3c0.1-0.1,0.3-0.2,0.4-0.3c0.2-0.1,0.3-0.2,0.5-0.3c0.1-0.1,0.3-0.2,0.4-0.2
			c0.2-0.1,0.3-0.2,0.5-0.2c0.1-0.1,0.3-0.1,0.4-0.2c0.2-0.1,0.3-0.2,0.5-0.2c0.1-0.1,0.3-0.1,0.5-0.2c0.2-0.1,0.3-0.1,0.5-0.2
			c0.2-0.1,0.3-0.1,0.5-0.2c0.2-0.1,0.4-0.1,0.5-0.2c0.2-0.1,0.3-0.1,0.5-0.2c0.2-0.1,0.4-0.1,0.6-0.2c0.2,0,0.3-0.1,0.5-0.1
			c0.2-0.1,0.4-0.1,0.6-0.2c0.1,0,0.3-0.1,0.4-0.1c0.3-0.1,0.5-0.1,0.8-0.2c0.1,0,0.2,0,0.3-0.1c0.4-0.1,0.7-0.2,1.1-0.2
			c0.1,0,0.3,0,0.4-0.1c0.2,0,0.5-0.1,0.7-0.1c0.2,0,0.3,0,0.5-0.1c0.2,0,0.4-0.1,0.7-0.1c0.2,0,0.3,0,0.5-0.1c0.2,0,0.4,0,0.6-0.1
			c0.2,0,0.4,0,0.5,0c0.2,0,0.4,0,0.5,0c-4.1-3.8-10.5-6.2-17.4-6.2c-12,0-21.8,6.8-21.8,15.2c0,2.6,1,5.2,2.9,7.6
			c0.2,0.3,0.3,0.6,0.2,0.9l-2.4,7.8l6.8-4.2c0.3-0.2,0.7-0.2,1,0c3.1,1.6,6.6,2.7,10.4,3c0-0.1-0.1-0.1-0.1-0.2
			C25.6,53.8,25.6,53.7,25.5,53.6z"/>
		<path class="st0" d="M41.9,0C18.8,0,0,18.8,0,41.9c0,23.1,18.8,41.9,41.9,41.9c23.1,0,41.9-18.8,41.9-41.9
			C83.8,18.8,65.1,0,41.9,0z M71.2,65.3c0.1,0.4,0,0.8-0.3,1.1c-0.2,0.1-0.4,0.2-0.6,0.2c-0.2,0-0.4-0.1-0.5-0.1l-8.6-5.3
			c-4,2.1-8.7,3.1-13.7,3.1c-8.2,0-15.9-3.1-20.2-8.2c-4.5-0.2-8.7-1.2-12.3-3.1l-8.6,5.3c-0.2,0.1-0.3,0.1-0.5,0.1
			c-0.2,0-0.4-0.1-0.6-0.2C5,58,4.8,57.6,4.9,57.2l3-9.8c-2-2.6-3-5.5-3-8.4c0-9.5,10.7-17.2,23.8-17.2c8.2,0,15.9,3.1,20.2,8.2
			c12.6,0.5,22.4,8,22.4,17.2c0,2.9-1,5.8-3,8.4L71.2,65.3z"/>
		<circle class="st0" cx="59.5" cy="48.3" r="2.1"/>
		<circle class="st0" cx="47.5" cy="48.3" r="2.1"/>
		<path class="st0" d="M69.3,47.1c0-8.2-9.2-14.9-20.9-15.2c0,0,0,0,0,0l-0.3,0c-0.2,0-0.3,0-0.5,0c-12,0-21.8,6.8-21.8,15.2
			c0,2.6,1,5.2,2.8,7.4c3.9,4.8,11.1,7.8,18.9,7.8c4.8,0,9.4-1.1,13.2-3.2c0.1-0.1,0.3-0.1,0.5-0.1c0.2,0,0.4,0.1,0.5,0.1l6.8,4.2
			l-2.4-7.8c-0.1-0.3,0-0.7,0.2-0.9C68.3,52.4,69.3,49.7,69.3,47.1z M35.6,52.4c-2.3,0-4.1-1.9-4.1-4.1s1.8-4.1,4.1-4.1
			s4.1,1.8,4.1,4.1C39.7,50.5,37.9,52.4,35.6,52.4z M47.5,52.4c-2.3,0-4.1-1.9-4.1-4.1s1.8-4.1,4.1-4.1c2.3,0,4.1,1.8,4.1,4.1
			S49.8,52.4,47.5,52.4z M59.5,52.4c-2.3,0-4.1-1.9-4.1-4.1s1.9-4.1,4.1-4.1c2.3,0,4.1,1.8,4.1,4.1S61.7,52.4,59.5,52.4z"/>
	</g>
</g>
</svg>
