<?xml version="1.0" encoding="utf-8"?>
<!-- Generator: Adobe Illustrator 25.2.3, SVG Export Plug-In . SVG Version: 6.00 Build 0)  -->
<svg version="1.1" id="Capa_1" xmlns="http://www.w3.org/2000/svg" xmlns:xlink="http://www.w3.org/1999/xlink" x="0px" y="0px"
	 viewBox="0 0 40 40" style="enable-background:new 0 0 40 40;" xml:space="preserve">
<style type="text/css">
	.st0{fill:#FFFFFF;}
</style>
<g>
	<path class="st0" d="M20,0C9,0,0,9,0,20s9,20,20,20s20-9,20-20S31,0,20,0z M27.8,23.5l-6.3,5.3c-0.4,0.4-1,0.5-1.5,0.5
		c-0.5,0-1.1-0.2-1.5-0.5l-6.3-5.3c-1-0.8-1.1-2.3-0.3-3.2c0.8-1,2.3-1.1,3.2-0.3l2.5,2.1v-9.2c0-1.3,1-2.3,2.3-2.3
		c1.3,0,2.3,1,2.3,2.3v9.2l2.5-2.1c1-0.8,2.4-0.7,3.2,0.3C28.8,21.2,28.7,22.6,27.8,23.5z"/>
</g>
</svg>
