<?xml version="1.0" encoding="utf-8"?>
<!-- Generator: Adobe Illustrator 25.2.3, SVG Export Plug-In . SVG Version: 6.00 Build 0)  -->
<svg version="1.1" id="Capa_1" xmlns="http://www.w3.org/2000/svg" xmlns:xlink="http://www.w3.org/1999/xlink" x="0px" y="0px"
	 viewBox="0 0 298.7 298.7" style="enable-background:new 0 0 298.7 298.7;" xml:space="preserve">
<style type="text/css">
	.st0{fill:#FFFFFF;}
</style>
<g>
	<path class="st0" d="M265,9.4H33.8C15.2,9.4,0,24.5,0,43.2v212.5c0,18.6,15.2,33.8,33.8,33.8H265c18.6,0,33.8-15.1,33.8-33.8V43.2
		C298.7,24.5,283.6,9.4,265,9.4z M193.2,59.6c18,0,32.6,14.6,32.6,32.6s-14.6,32.6-32.6,32.6c-18,0-32.6-14.6-32.6-32.6
		S175.1,59.6,193.2,59.6z M254.4,258.1h-105H49c-9,0-13-6.5-9-14.6l56-110.9c4.1-8,11.8-8.8,17.3-1.6l56.3,73.6
		c5.5,7.2,15.1,7.8,21.4,1.4l13.8-14c6.3-6.4,15.7-5.6,20.8,1.8l35.7,51C266.5,252.2,263.4,258.1,254.4,258.1z"/>
</g>
</svg>
